<svg width="62" height="23" viewBox="0 0 62 23" fill="none" xmlns="http://www.w3.org/2000/svg">
<g clip-path="url(#clip0_70_7270)">
<path d="M2.11513 17.8512C2.11513 17.8512 2.11042 17.8442 2.10571 17.8395C2.10807 17.8442 2.11042 17.8465 2.11513 17.8512Z" fill="white"/>
<mask id="path-2-inside-1_70_7270" fill="white">
<path d="M11.5 0C5.15844 0 0 5.15844 0 11.5C0 17.8416 5.15844 23 11.5 23C17.8416 23 23 17.8416 23 11.5C23 5.15844 17.8416 0 11.5 0ZM11.5 22.8565C5.23791 22.8565 0.143474 17.7621 0.143474 11.5C0.143474 5.23791 5.23791 0.143474 11.5 0.143474C17.7621 0.143474 22.8565 5.23791 22.8565 11.5C22.8565 17.7621 17.7621 22.8565 11.5 22.8565Z"/>
</mask>
<path d="M11.5 0C5.15844 0 0 5.15844 0 11.5C0 17.8416 5.15844 23 11.5 23C17.8416 23 23 17.8416 23 11.5C23 5.15844 17.8416 0 11.5 0ZM11.5 22.8565C5.23791 22.8565 0.143474 17.7621 0.143474 11.5C0.143474 5.23791 5.23791 0.143474 11.5 0.143474C17.7621 0.143474 22.8565 5.23791 22.8565 11.5C22.8565 17.7621 17.7621 22.8565 11.5 22.8565Z" fill="white"/>
<path d="M11.5 -0.220729C5.03654 -0.220729 -0.220729 5.03654 -0.220729 11.5H0.220729C0.220729 5.28035 5.28035 0.220729 11.5 0.220729V-0.220729ZM-0.220729 11.5C-0.220729 17.9635 5.03654 23.2207 11.5 23.2207V22.7793C5.28035 22.7793 0.220729 17.7196 0.220729 11.5H-0.220729ZM11.5 23.2207C17.9635 23.2207 23.2207 17.9635 23.2207 11.5H22.7793C22.7793 17.7196 17.7196 22.7793 11.5 22.7793V23.2207ZM23.2207 11.5C23.2207 5.03654 17.9635 -0.220729 11.5 -0.220729V0.220729C17.7196 0.220729 22.7793 5.28035 22.7793 11.5H23.2207ZM11.5 22.6358C5.35981 22.6358 0.364203 17.6402 0.364203 11.5H-0.0772553C-0.0772553 17.884 5.116 23.0773 11.5 23.0773V22.6358ZM0.364203 11.5C0.364203 5.35981 5.35981 0.364203 11.5 0.364203V-0.0772553C5.116 -0.0772553 -0.0772553 5.116 -0.0772553 11.5H0.364203ZM11.5 0.364203C17.6402 0.364203 22.6358 5.35981 22.6358 11.5H23.0773C23.0773 5.116 17.884 -0.0772553 11.5 -0.0772553V0.364203ZM22.6358 11.5C22.6358 17.6402 17.6402 22.6358 11.5 22.6358V23.0773C17.884 23.0773 23.0773 17.884 23.0773 11.5H22.6358Z" fill="white" mask="url(#path-2-inside-1_70_7270)"/>
<mask id="path-4-inside-2_70_7270" fill="white">
<path d="M21.6094 7.25527C21.477 6.93962 21.3269 6.6306 21.1657 6.33041C21.1415 6.28627 21.1172 6.24212 21.0929 6.20018C21.0311 6.08761 20.9671 5.97504 20.9009 5.86688C20.881 5.83377 20.8611 5.80287 20.8413 5.76976C20.7662 5.64836 20.689 5.52696 20.6095 5.40776C20.5963 5.3879 20.583 5.36803 20.5698 5.34817C20.4793 5.21573 20.3866 5.08329 20.2894 4.95527C20.285 4.95085 20.2806 4.94423 20.2784 4.93982C19.4418 3.82293 18.3978 2.87158 17.2037 2.14097C17.1794 2.12552 17.1573 2.11227 17.133 2.09903C17.0138 2.0284 16.8946 1.95997 16.7732 1.89154C16.7313 1.86726 16.6871 1.84519 16.643 1.82091C16.5415 1.76573 16.4377 1.71275 16.334 1.66198C16.2744 1.63329 16.2148 1.6046 16.1552 1.5759C16.0669 1.53396 15.9764 1.49423 15.8859 1.4545C15.8131 1.4236 15.7402 1.39049 15.6652 1.35959C15.3584 1.23377 15.0471 1.11899 14.7271 1.01966C13.7051 0.704019 12.6213 0.534058 11.4978 0.534058C5.45423 0.536265 0.536377 5.45412 0.536377 11.4999C0.536377 13.0031 0.840984 14.4378 1.3906 15.7423C1.52304 16.058 1.67313 16.367 1.83427 16.6672C1.85855 16.7113 1.88283 16.7555 1.90711 16.7996C1.96891 16.9122 2.03292 17.0225 2.09914 17.1329C2.11901 17.166 2.13887 17.1991 2.15874 17.23C2.23379 17.3514 2.31104 17.4728 2.3905 17.592C2.40375 17.6119 2.41699 17.6318 2.43024 17.6516C2.52073 17.7841 2.61344 17.9165 2.71056 18.0467C2.71498 18.0511 2.71718 18.0578 2.7216 18.0622C3.55816 19.1791 4.60221 20.1304 5.79857 20.861C5.82285 20.8743 5.84492 20.8897 5.8692 20.903C5.98839 20.9736 6.10759 21.0442 6.22899 21.1105C6.27313 21.1347 6.31507 21.1568 6.35922 21.1811C6.46075 21.2363 6.5645 21.2892 6.66824 21.34C6.72784 21.3687 6.78743 21.3974 6.84703 21.4261C6.93532 21.468 7.02582 21.5078 7.11632 21.5475C7.18916 21.5806 7.262 21.6115 7.33705 21.6424C7.64386 21.7682 7.95509 21.883 8.27515 21.9801C9.29713 22.2958 10.3809 22.4657 11.5044 22.4657C17.5502 22.4657 22.468 17.5479 22.468 11.5021C22.468 9.99893 22.1634 8.56419 21.6138 7.25968L21.6094 7.25527ZM15.7888 2.03281C15.7888 2.03281 15.7954 2.03502 15.7976 2.03722C15.9367 2.10124 16.0735 2.16525 16.2082 2.23367C16.2104 2.23367 16.2148 2.23588 16.217 2.23809C17.729 3.00843 19.0247 4.13857 19.9959 5.51592C19.9959 5.51813 20.0003 5.52033 20.0003 5.52254C20.0864 5.64394 20.1703 5.76755 20.2497 5.89337C20.2519 5.89778 20.2563 5.9044 20.2585 5.90882C20.338 6.03463 20.4153 6.16045 20.4903 6.29068C20.4925 6.29509 20.4947 6.29951 20.4969 6.30392C20.572 6.43415 20.6448 6.56659 20.7155 6.70124C20.7155 6.70124 20.7155 6.70124 20.7132 6.70124C20.6735 6.70124 20.6316 6.70344 20.5918 6.70344C17.8261 6.70344 15.5636 4.56458 15.3628 1.8496C15.5062 1.90699 15.6475 1.96659 15.7866 2.0306L15.7888 2.03281ZM7.63503 21.1458C7.49377 21.0884 7.3525 21.0288 7.21344 20.9648C7.20903 20.9648 7.20682 20.9604 7.2024 20.9604C7.06555 20.8986 6.9287 20.8323 6.79405 20.7639C6.79185 20.7639 6.78743 20.7595 6.78523 20.7595C5.27544 19.9891 3.97976 18.859 3.00855 17.4839C3.00855 17.4817 3.00413 17.4772 3.00192 17.475C2.91584 17.3536 2.83417 17.23 2.7525 17.1042C2.74809 17.0998 2.74588 17.0932 2.74146 17.0888C2.662 16.9629 2.58475 16.8371 2.5097 16.7069C2.50749 16.7025 2.50528 16.6981 2.50308 16.6937C2.42803 16.5634 2.35739 16.4288 2.28676 16.2963C2.32649 16.2963 2.36843 16.2941 2.40816 16.2941C5.1739 16.2941 7.43638 18.433 7.63724 21.148L7.63503 21.1458ZM15.7049 16.1374H15.7027V12.3409H7.29953V15.8792C7.29953 16.985 8.19789 17.8834 9.30375 17.8834H19.6979C17.7952 20.3224 14.833 21.8918 11.5022 21.8918C10.3566 21.8918 9.25739 21.7042 8.22659 21.3621L8.20672 21.1038C8.09857 19.6426 7.44741 18.2851 6.37246 17.283C5.2931 16.2743 3.88263 15.7202 2.40595 15.7202C2.37285 15.7202 2.33974 15.7202 2.30663 15.7202H2.2691L2.00864 15.7269C1.46785 14.5173 1.15442 13.1863 1.1169 11.7846H18.4684C18.4684 11.469 18.2124 11.2129 17.8967 11.2129H1.11469C1.16987 9.16899 1.8144 7.27293 2.88494 5.68809H6.112C6.76095 5.68809 7.28628 6.21122 7.29511 6.85575H7.29953V10.6567H15.7027V7.11841C15.7027 6.01256 14.8043 5.11419 13.6985 5.11419H9.42515H3.30432C5.2048 2.67734 8.1692 1.10795 11.5 1.10795C12.6456 1.10795 13.7448 1.29557 14.7734 1.6377L14.7933 1.89596C14.9014 3.35719 15.5526 4.71467 16.6275 5.71678C17.7069 6.72552 19.1174 7.27955 20.5941 7.27955C20.6272 7.27955 20.6603 7.27955 20.6934 7.27955H20.7309L20.9914 7.27293C21.5675 8.56419 21.8919 9.99452 21.8919 11.5021C21.8919 13.6542 21.2364 15.654 20.1173 17.3139H16.8902V17.3095C16.2413 17.3095 15.7137 16.7886 15.7049 16.1418V16.1374Z"/>
</mask>
<path d="M21.6094 7.25527C21.477 6.93962 21.3269 6.6306 21.1657 6.33041C21.1415 6.28627 21.1172 6.24212 21.0929 6.20018C21.0311 6.08761 20.9671 5.97504 20.9009 5.86688C20.881 5.83377 20.8611 5.80287 20.8413 5.76976C20.7662 5.64836 20.689 5.52696 20.6095 5.40776C20.5963 5.3879 20.583 5.36803 20.5698 5.34817C20.4793 5.21573 20.3866 5.08329 20.2894 4.95527C20.285 4.95085 20.2806 4.94423 20.2784 4.93982C19.4418 3.82293 18.3978 2.87158 17.2037 2.14097C17.1794 2.12552 17.1573 2.11227 17.133 2.09903C17.0138 2.0284 16.8946 1.95997 16.7732 1.89154C16.7313 1.86726 16.6871 1.84519 16.643 1.82091C16.5415 1.76573 16.4377 1.71275 16.334 1.66198C16.2744 1.63329 16.2148 1.6046 16.1552 1.5759C16.0669 1.53396 15.9764 1.49423 15.8859 1.4545C15.8131 1.4236 15.7402 1.39049 15.6652 1.35959C15.3584 1.23377 15.0471 1.11899 14.7271 1.01966C13.7051 0.704019 12.6213 0.534058 11.4978 0.534058C5.45423 0.536265 0.536377 5.45412 0.536377 11.4999C0.536377 13.0031 0.840984 14.4378 1.3906 15.7423C1.52304 16.058 1.67313 16.367 1.83427 16.6672C1.85855 16.7113 1.88283 16.7555 1.90711 16.7996C1.96891 16.9122 2.03292 17.0225 2.09914 17.1329C2.11901 17.166 2.13887 17.1991 2.15874 17.23C2.23379 17.3514 2.31104 17.4728 2.3905 17.592C2.40375 17.6119 2.41699 17.6318 2.43024 17.6516C2.52073 17.7841 2.61344 17.9165 2.71056 18.0467C2.71498 18.0511 2.71718 18.0578 2.7216 18.0622C3.55816 19.1791 4.60221 20.1304 5.79857 20.861C5.82285 20.8743 5.84492 20.8897 5.8692 20.903C5.98839 20.9736 6.10759 21.0442 6.22899 21.1105C6.27313 21.1347 6.31507 21.1568 6.35922 21.1811C6.46075 21.2363 6.5645 21.2892 6.66824 21.34C6.72784 21.3687 6.78743 21.3974 6.84703 21.4261C6.93532 21.468 7.02582 21.5078 7.11632 21.5475C7.18916 21.5806 7.262 21.6115 7.33705 21.6424C7.64386 21.7682 7.95509 21.883 8.27515 21.9801C9.29713 22.2958 10.3809 22.4657 11.5044 22.4657C17.5502 22.4657 22.468 17.5479 22.468 11.5021C22.468 9.99893 22.1634 8.56419 21.6138 7.25968L21.6094 7.25527ZM15.7888 2.03281C15.7888 2.03281 15.7954 2.03502 15.7976 2.03722C15.9367 2.10124 16.0735 2.16525 16.2082 2.23367C16.2104 2.23367 16.2148 2.23588 16.217 2.23809C17.729 3.00843 19.0247 4.13857 19.9959 5.51592C19.9959 5.51813 20.0003 5.52033 20.0003 5.52254C20.0864 5.64394 20.1703 5.76755 20.2497 5.89337C20.2519 5.89778 20.2563 5.9044 20.2585 5.90882C20.338 6.03463 20.4153 6.16045 20.4903 6.29068C20.4925 6.29509 20.4947 6.29951 20.4969 6.30392C20.572 6.43415 20.6448 6.56659 20.7155 6.70124C20.7155 6.70124 20.7155 6.70124 20.7132 6.70124C20.6735 6.70124 20.6316 6.70344 20.5918 6.70344C17.8261 6.70344 15.5636 4.56458 15.3628 1.8496C15.5062 1.90699 15.6475 1.96659 15.7866 2.0306L15.7888 2.03281ZM7.63503 21.1458C7.49377 21.0884 7.3525 21.0288 7.21344 20.9648C7.20903 20.9648 7.20682 20.9604 7.2024 20.9604C7.06555 20.8986 6.9287 20.8323 6.79405 20.7639C6.79185 20.7639 6.78743 20.7595 6.78523 20.7595C5.27544 19.9891 3.97976 18.859 3.00855 17.4839C3.00855 17.4817 3.00413 17.4772 3.00192 17.475C2.91584 17.3536 2.83417 17.23 2.7525 17.1042C2.74809 17.0998 2.74588 17.0932 2.74146 17.0888C2.662 16.9629 2.58475 16.8371 2.5097 16.7069C2.50749 16.7025 2.50528 16.6981 2.50308 16.6937C2.42803 16.5634 2.35739 16.4288 2.28676 16.2963C2.32649 16.2963 2.36843 16.2941 2.40816 16.2941C5.1739 16.2941 7.43638 18.433 7.63724 21.148L7.63503 21.1458ZM15.7049 16.1374H15.7027V12.3409H7.29953V15.8792C7.29953 16.985 8.19789 17.8834 9.30375 17.8834H19.6979C17.7952 20.3224 14.833 21.8918 11.5022 21.8918C10.3566 21.8918 9.25739 21.7042 8.22659 21.3621L8.20672 21.1038C8.09857 19.6426 7.44741 18.2851 6.37246 17.283C5.2931 16.2743 3.88263 15.7202 2.40595 15.7202C2.37285 15.7202 2.33974 15.7202 2.30663 15.7202H2.2691L2.00864 15.7269C1.46785 14.5173 1.15442 13.1863 1.1169 11.7846H18.4684C18.4684 11.469 18.2124 11.2129 17.8967 11.2129H1.11469C1.16987 9.16899 1.8144 7.27293 2.88494 5.68809H6.112C6.76095 5.68809 7.28628 6.21122 7.29511 6.85575H7.29953V10.6567H15.7027V7.11841C15.7027 6.01256 14.8043 5.11419 13.6985 5.11419H9.42515H3.30432C5.2048 2.67734 8.1692 1.10795 11.5 1.10795C12.6456 1.10795 13.7448 1.29557 14.7734 1.6377L14.7933 1.89596C14.9014 3.35719 15.5526 4.71467 16.6275 5.71678C17.7069 6.72552 19.1174 7.27955 20.5941 7.27955C20.6272 7.27955 20.6603 7.27955 20.6934 7.27955H20.7309L20.9914 7.27293C21.5675 8.56419 21.8919 9.99452 21.8919 11.5021C21.8919 13.6542 21.2364 15.654 20.1173 17.3139H16.8902V17.3095C16.2413 17.3095 15.7137 16.7886 15.7049 16.1418V16.1374Z" fill="white" stroke="white" stroke-width="0.441459" mask="url(#path-4-inside-2_70_7270)"/>
<path d="M46.7171 11.6236C46.9036 11.6236 47.0548 11.4724 47.0548 11.2858C47.0548 11.0993 46.9036 10.9481 46.7171 10.9481C46.5306 10.9481 46.3794 11.0993 46.3794 11.2858C46.3794 11.4724 46.5306 11.6236 46.7171 11.6236Z" fill="white"/>
<path d="M52.7478 20.5255C51.6596 20.5255 50.7745 19.6404 50.7745 18.5522V12.3431H51.4521V18.5522C51.4521 19.2674 52.0327 19.8479 52.7478 19.8479H59.6522C60.3674 19.8479 60.9479 19.2674 60.9479 18.5522V4.70806C60.9479 3.9929 60.3674 3.41238 59.6522 3.41238H52.7478C52.0327 3.41238 51.4521 3.9929 51.4521 4.70806V11.1092H59.085C59.3211 11.1092 59.5286 11.2703 59.5948 11.4933H59.3256V11.7869H50.1057C49.8121 11.7869 49.5737 11.5485 49.5737 11.2549V11.1114H50.7767V4.70806C50.7767 3.61987 51.6618 2.73474 52.75 2.73474H59.6544C60.7426 2.73474 61.6278 3.61987 61.6278 4.70806V18.55C61.6278 19.6382 60.7426 20.5233 59.6544 20.5233H52.75L52.7478 20.5255Z" fill="white"/>
<path d="M40.6231 20.5919C40.8217 20.2498 41.0822 19.3404 41.1109 16.93V8.53125H41.6737C41.7355 8.53125 41.7863 8.58202 41.7863 8.64382V16.9278C41.7863 16.9609 41.8018 20.0864 40.6208 20.5919H40.6231Z" fill="white"/>
<path d="M31.4894 17.8837C31.2532 17.8837 31.0457 17.7226 30.9795 17.4996H31.2488V17.2061H33.1073C33.4009 17.2061 33.6393 17.4444 33.6393 17.738V17.8815H31.4872L31.4894 17.8837Z" fill="white"/>
<path d="M38.4226 11.7869C38.1356 11.7869 37.8972 11.5529 37.8906 11.266V11.1115H43.3272C43.6208 11.1115 43.8591 11.3498 43.8591 11.6434V11.7869H38.4204H38.4226Z" fill="white"/>
<path d="M43.7684 7.82484C43.5278 7.77408 43.2717 7.60411 43.2717 7.43415V4.64413C43.2717 3.55594 42.3866 2.67081 41.2984 2.67081H39.7732V1.25152C39.7732 1.214 39.7445 1.1853 39.707 1.1853H39.164C39.1264 1.1853 39.0978 1.2162 39.0978 1.25152V2.6686H37.961C37.9235 2.6686 37.8948 2.69951 37.8948 2.73482V3.27782C37.8948 3.31534 37.9257 3.34404 37.961 3.34404H38.2281H39.0978V8.46275C39.0978 8.50027 39.1287 8.52897 39.164 8.52897H39.7732V3.34624H41.2984C42.0136 3.34624 42.5941 3.92676 42.5941 4.64193V7.43194C42.5941 8.04999 43.2497 8.48482 43.8633 8.51573V7.933C43.8633 7.88002 43.8236 7.83367 43.7684 7.82264V7.82484Z" fill="white"/>
<path d="M34.4673 5.14062H33.6484V3.34609H36.4384V3.20261C36.4384 2.90904 36.2 2.67065 35.9065 2.67065H28.1787V2.81413C28.1787 3.1077 28.4171 3.34609 28.7107 3.34609H30.9577V5.14062H30.1498C29.0616 5.14062 28.1765 6.02574 28.1765 7.11394V18.6206C28.1765 19.7088 29.0616 20.5939 30.1498 20.5939H34.4673C35.5555 20.5939 36.4406 19.7088 36.4406 18.6206V7.11173C36.4406 6.02353 35.5555 5.13841 34.4673 5.13841V5.14062ZM31.6353 3.34609H32.973V5.14062H31.6353V3.34609ZM35.7652 15.4156V18.6184C35.7652 19.3335 35.1847 19.914 34.4695 19.914H30.152C29.4369 19.914 28.8564 19.3335 28.8564 18.6184V15.4156V9.92603V7.11394C28.8564 6.39877 29.4369 5.81826 30.152 5.81826H30.9599V15.4597H31.1034C31.397 15.4597 31.6353 15.2213 31.6353 14.9278V5.81605H32.973V11.3851C32.973 11.6058 33.1518 11.7846 33.3725 11.7846H35.0213C34.9882 11.4049 34.6682 11.1091 34.2819 11.1091H33.8493C33.7367 11.1069 33.6506 10.8553 33.6506 10.7427V5.81605H34.4695C35.1847 5.81605 35.7652 6.39657 35.7652 7.11173V9.92382V15.4134V15.4156Z" fill="white"/>
</g>
<defs>
<clipPath id="clip0_70_7270">
<rect width="61.6254" height="23" fill="white"/>
</clipPath>
</defs>
</svg>
