<svg width="46" height="22" viewBox="0 0 46 22" fill="none" xmlns="http://www.w3.org/2000/svg">
<g clip-path="url(#clip0_2683_25728)">
<mask id="mask0_2683_25728" style="mask-type:luminance" maskUnits="userSpaceOnUse" x="0" y="0" width="22" height="22">
<path d="M0.487369 11C0.487369 5.36716 5.06931 0.78522 10.7022 0.78522C16.3351 0.78522 20.917 5.36716 20.917 11C20.917 16.6329 16.3351 21.2148 10.7022 21.2148C5.06931 21.2148 0.487369 16.6329 0.487369 11ZM0.358398 11C0.358398 16.7026 4.99785 21.3438 10.7022 21.3438C16.4065 21.3438 21.046 16.7044 21.046 11C21.046 5.2957 16.4048 0.65625 10.7022 0.65625C4.99959 0.65625 0.358398 5.2957 0.358398 11Z" fill="white"/>
</mask>
<g mask="url(#mask0_2683_25728)">
<path d="M21.046 0.65625H0.358398V21.3438H21.046V0.65625Z" fill="url(#paint0_linear_2683_25728)"/>
</g>
<mask id="mask1_2683_25728" style="mask-type:luminance" maskUnits="userSpaceOnUse" x="0" y="1" width="21" height="20">
<path d="M7.22562 19.6757C7.09665 19.6251 6.97117 19.5711 6.84568 19.5136C6.8422 19.5119 6.83871 19.5101 6.83523 19.5084C6.71148 19.4526 6.58949 19.3933 6.46749 19.3306C6.464 19.3289 6.46226 19.3271 6.45877 19.3254C5.1011 18.6317 3.93513 17.6174 3.06197 16.3782C3.06023 16.3747 3.05848 16.373 3.05674 16.3695C2.98006 16.2597 2.90511 16.1482 2.83191 16.0366C2.82843 16.0314 2.82669 16.0279 2.8232 16.0227C2.75174 15.9094 2.68203 15.7961 2.61406 15.6811C2.61232 15.6776 2.60883 15.6741 2.60709 15.6689C2.53912 15.5521 2.47463 15.4319 2.41189 15.3116C2.44849 15.3099 2.48509 15.3081 2.52169 15.3081C5.01047 15.3099 7.04611 17.234 7.22562 19.6757ZM14.1778 2.32393C14.3068 2.37621 14.4323 2.43024 14.5578 2.48601C14.5613 2.48775 14.563 2.4895 14.5665 2.4895C14.6902 2.54527 14.814 2.60453 14.936 2.66727C14.9377 2.66901 14.9412 2.67075 14.9429 2.67075C16.3024 3.36441 17.4683 4.38048 18.3415 5.6179C18.3432 5.61965 18.345 5.62313 18.3467 5.62487C18.4234 5.73467 18.4983 5.84622 18.5715 5.9595C18.575 5.96473 18.5768 5.96821 18.5803 5.97344C18.6517 6.08673 18.7232 6.20001 18.7894 6.31678C18.7911 6.32027 18.7929 6.32375 18.7964 6.32724C18.8643 6.44575 18.9306 6.56427 18.9933 6.68627H18.9916C18.955 6.68627 18.9184 6.68975 18.8818 6.68975C16.3947 6.68975 14.3591 4.76391 14.1778 2.32393ZM10.7026 1.65293C11.7326 1.65293 12.7208 1.82199 13.648 2.12873L13.6654 2.36053C13.763 3.67463 14.3486 4.89637 15.3142 5.79742C16.2849 6.70369 17.5537 7.20389 18.8818 7.20389C18.9114 7.20389 18.941 7.20215 18.9706 7.20215L19.0055 7.20041L19.239 7.19518C19.7584 8.35765 20.0477 9.64387 20.0477 10.9981C20.0477 12.9344 19.4586 14.733 18.4513 16.2249H15.5512V16.2214C14.9673 16.2214 14.4933 15.7525 14.4846 15.1704H14.4828V11.7579H6.92411V14.9404C6.92411 15.9338 7.73279 16.7425 8.72621 16.7425H12.1823H13.9669H14.4828H18.0766C16.3668 18.935 13.7003 20.3484 10.7043 20.3484C9.67432 20.3484 8.68613 20.1794 7.75893 19.8726L7.74151 19.6408C7.64391 18.3267 7.05831 17.1067 6.09278 16.2039C5.12201 15.2977 3.85496 14.7975 2.52517 14.7975C2.49555 14.7975 2.46592 14.7992 2.43629 14.7992L2.40143 14.8009L2.16789 14.8062C1.68164 13.7186 1.3993 12.5196 1.36618 11.2612H16.9733C16.9733 10.9771 16.7433 10.7454 16.4575 10.7454H1.36095C1.4115 8.90839 1.99012 7.20215 2.95217 5.7765H5.85401C6.43786 5.77824 6.91017 6.24707 6.91888 6.82744H6.92237V10.2417H14.4793V7.05924C14.4793 6.06581 13.6707 5.25713 12.6772 5.25713H8.83427H3.33037C5.0401 3.06464 7.70491 1.65293 10.7026 1.65293ZM0.839844 10.9998C0.839844 12.3523 1.11347 13.642 1.60844 14.8166C1.72869 15.1007 1.86115 15.3778 2.00755 15.6497C2.02846 15.6898 2.05112 15.7281 2.07378 15.7682C2.12955 15.8693 2.18706 15.9687 2.24632 16.068C2.26375 16.0976 2.28292 16.1273 2.30035 16.1569C2.36832 16.2667 2.43803 16.3747 2.50949 16.4811C2.52169 16.4985 2.53389 16.5159 2.54609 16.5351C2.628 16.6553 2.71166 16.7738 2.7988 16.8906C2.80229 16.8958 2.80577 16.8993 2.80926 16.9046C3.56217 17.9084 4.50156 18.7659 5.57689 19.423C5.59781 19.4352 5.61872 19.4474 5.63964 19.4613C5.74595 19.5258 5.85401 19.5868 5.9638 19.6478C6.00215 19.6687 6.04223 19.6896 6.08058 19.7105C6.17295 19.7593 6.26532 19.8064 6.35943 19.8535C6.41172 19.8796 6.46574 19.9057 6.51977 19.9301C6.59994 19.9685 6.68011 20.0033 6.76203 20.0399C6.82826 20.0696 6.89448 20.0975 6.96071 20.1253C7.23608 20.2386 7.51668 20.3414 7.80425 20.4303C8.72273 20.7144 9.69872 20.8678 10.7078 20.8678C16.1455 20.8678 20.5688 16.4445 20.5688 11.005C20.5688 9.65259 20.2952 8.36288 19.8002 7.18821C19.68 6.90412 19.5475 6.62701 19.4029 6.35687C19.382 6.31678 19.3593 6.27844 19.3384 6.23836C19.2826 6.13727 19.2251 6.03619 19.1658 5.93859C19.1484 5.90896 19.131 5.87933 19.1118 5.85144C19.0438 5.74164 18.9741 5.63359 18.9027 5.52728C18.8905 5.50985 18.8783 5.49067 18.8661 5.47325C18.7842 5.35299 18.7005 5.23448 18.6134 5.11945C18.6099 5.11422 18.6064 5.11074 18.6029 5.10551C17.85 4.10163 16.9106 3.24415 15.837 2.58884C15.8161 2.57664 15.7952 2.5627 15.7725 2.5505C15.6662 2.48601 15.5582 2.42501 15.4501 2.36401C15.4118 2.3431 15.3717 2.32218 15.3333 2.30127C15.241 2.25247 15.1486 2.20541 15.0545 2.15836C15.0004 2.13221 14.9482 2.10607 14.8941 2.08167C14.814 2.04333 14.7338 2.00673 14.6519 1.97187C14.5857 1.94399 14.5212 1.91436 14.4549 1.88822C14.1796 1.77493 13.899 1.6721 13.6114 1.58322C12.6929 1.29914 11.7169 1.14576 10.7078 1.14576C5.26493 1.13705 0.839844 5.56213 0.839844 10.9998Z" fill="white"/>
</mask>
<g mask="url(#mask1_2683_25728)">
<path d="M20.5636 1.13672H0.839844V20.8605H20.5636V1.13672Z" fill="url(#paint1_linear_2683_25728)"/>
</g>
<path d="M36.7227 11.0542C36.7227 11.1727 36.6268 11.2686 36.5083 11.2686C36.3898 11.2686 36.2939 11.1727 36.2939 11.0542C36.2939 10.9357 36.3898 10.8398 36.5083 10.8398C36.6268 10.8398 36.7227 10.9357 36.7227 11.0542Z" fill="#431610"/>
<path d="M40.3477 16.7409C39.654 16.7409 39.0911 16.178 39.0911 15.4843V11.5176H39.5216V15.4861C39.5216 15.941 39.891 16.3104 40.3477 16.3104H44.7431C45.198 16.3104 45.5675 15.941 45.5675 15.4861V6.51392C45.5675 6.05903 45.198 5.68781 44.7431 5.68781H40.3477C39.8928 5.68781 39.5216 6.05729 39.5216 6.51392V10.8118H44.3806C44.5305 10.8118 44.6629 10.9146 44.7048 11.0558H44.534V11.2423H38.6641C38.4776 11.2423 38.3242 11.0906 38.3242 10.9024V10.81H39.0911V6.51392C39.0911 5.82201 39.654 5.25732 40.3477 5.25732H44.7431C45.435 5.25732 45.9997 5.82026 45.9997 6.51392V15.4843C45.9997 16.1762 45.4368 16.7409 44.7431 16.7409H40.3477Z" fill="#431610"/>
<path d="M26.8007 14.9424C26.6491 14.9424 26.5184 14.8414 26.4766 14.6984H26.6474V14.512H27.8308C28.0172 14.512 28.1706 14.6636 28.1706 14.8518V14.9442H26.8007V14.9424Z" fill="#431610"/>
<path d="M31.2151 11.2423C31.0321 11.2423 30.8804 11.0941 30.877 10.9111V10.8118H34.3382C34.5247 10.8118 34.6781 10.9634 34.6781 11.1516V11.2423H31.2151Z" fill="#431610"/>
<path d="M34.6196 8.53747C34.4662 8.50435 34.3024 8.3963 34.3024 8.28824V6.51054C34.3024 5.81863 33.7395 5.25395 33.0458 5.25395H32.326H32.0733V4.35115C32.0733 4.3285 32.0541 4.30933 32.0315 4.30933H31.6847C31.662 4.30933 31.6428 4.3285 31.6428 4.35115V5.25395H31.0886H30.9178C30.8951 5.25395 30.876 5.27312 30.876 5.29578V5.6426C30.876 5.66526 30.8951 5.68443 30.9178 5.68443H31.0886H31.6428V8.96446C31.6428 8.98712 31.662 9.00629 31.6847 9.00629H32.0733V5.68792H33.0441C33.499 5.68792 33.8702 6.0574 33.8702 6.51228V8.28998C33.8702 8.68212 34.2867 8.96098 34.6771 8.98015V8.60892C34.6789 8.57407 34.6545 8.54618 34.6196 8.53747Z" fill="#431610"/>
<path d="M35.6949 4.26221L35.6924 4.26473C35.6924 4.26473 35.6924 4.26473 35.6949 4.26221Z" fill="#431610"/>
<path d="M35.6949 4.26221L35.6924 4.26473C35.6924 4.26473 35.6924 4.26473 35.6949 4.26221Z" fill="#431610"/>
<path d="M28.6974 6.83111H28.3175H28.1763V5.68955H29.9523V5.59718C29.9523 5.41069 29.8007 5.25732 29.6124 5.25732H24.6924V5.3497C24.6924 5.53618 24.844 5.68955 25.0322 5.68955H26.4631V6.3344V6.83111H25.949C25.2553 6.83111 24.6924 7.39405 24.6924 8.0877V9.16478V9.8776V13.3737V14.9458V15.4861C24.6924 16.178 25.2553 16.7427 25.949 16.7427H26.4788H27.2369H27.4112H28.2844H28.6974C29.3911 16.7427 29.954 16.1797 29.954 15.4861V14.402V13.3755V9.8776V8.9173V8.08596C29.954 7.39405 29.3893 6.83111 28.6974 6.83111ZM26.8936 5.68955H27.7441V6.83111H27.4095H27.2352H26.8936V5.68955ZM29.5218 13.3737V15.4861C29.5218 15.941 29.1523 16.3104 28.6957 16.3104H27.4095H27.2352H25.949C25.4941 16.3104 25.1229 15.941 25.1229 15.4861V13.3737V9.8776V8.0877C25.1229 7.63282 25.4923 7.26334 25.949 7.26334H26.4631V9.16652V13.4016H26.5555C26.742 13.4016 26.8953 13.25 26.8953 13.0618V7.2616H27.2369H27.4112H27.7458V10.9878C27.7458 11.1272 27.8591 11.2423 28.0003 11.2423H29.0512C29.0303 11.0017 28.8264 10.8118 28.5789 10.8118H28.2826C28.2251 10.8118 28.1781 10.7647 28.1781 10.7072V7.2616H28.6992C29.1541 7.2616 29.5253 7.63108 29.5253 8.08596V9.87586V13.3737H29.5218Z" fill="#431610"/>
<path d="M33.3589 9.0883C33.3589 9.04822 33.3258 9.01685 33.2874 9.01685H32.9284V12.6768V14.3639C32.9092 15.8732 32.7454 16.5093 32.6182 16.7272C33.3693 16.4065 33.3606 14.3587 33.3589 14.3639V12.6786V9.0883Z" fill="#431610"/>
</g>
<defs>
<linearGradient id="paint0_linear_2683_25728" x1="10.7015" y1="5.27081" x2="10.7015" y2="25.9579" gradientUnits="userSpaceOnUse">
<stop stop-color="#C45358"/>
<stop offset="0.2042" stop-color="#BE5054"/>
<stop offset="0.4189" stop-color="#B1474B"/>
<stop offset="0.6384" stop-color="#9D3B3C"/>
<stop offset="0.8599" stop-color="#842A2B"/>
<stop offset="1" stop-color="#711E20"/>
</linearGradient>
<linearGradient id="paint1_linear_2683_25728" x1="10.6878" y1="5.54032" x2="10.6878" y2="25.2641" gradientUnits="userSpaceOnUse">
<stop stop-color="#C45358"/>
<stop offset="0.2042" stop-color="#BE5054"/>
<stop offset="0.4189" stop-color="#B1474B"/>
<stop offset="0.6384" stop-color="#9D3B3C"/>
<stop offset="0.8599" stop-color="#842A2B"/>
<stop offset="1" stop-color="#711E20"/>
</linearGradient>
<clipPath id="clip0_2683_25728">
<rect width="45.6416" height="20.6876" fill="white" transform="translate(0.358398 0.65625)"/>
</clipPath>
</defs>
</svg>
