<svg width="24" height="24" viewBox="0 0 24 24" fill="none" xmlns="http://www.w3.org/2000/svg">
<g clip-path="url(#clip0_265_151)">
<rect width="24" height="24" rx="12" fill="white"/>
<g filter="url(#filter0_dd_265_151)">
<g clip-path="url(#clip1_265_151)">
<mask id="mask0_265_151" style="mask-type:luminance" maskUnits="userSpaceOnUse" x="-6" y="0" width="36" height="24">
<rect x="-6" width="36" height="24" fill="white"/>
</mask>
<g mask="url(#mask0_265_151)">
<path fill-rule="evenodd" clip-rule="evenodd" d="M-6 0H30V24H-6V0Z" fill="#E31D1C"/>
<path fill-rule="evenodd" clip-rule="evenodd" d="M-6 2V4H30V2H-6ZM-6 6.00003V8.00003H30V6.00003H-6ZM-6 12V10H30V12H-6ZM-6 14V16H30V14H-6ZM-6 20V18H30V20H-6ZM-6 24V22H30V24H-6Z" fill="#F7FCFF"/>
<rect x="-6" width="20.25" height="14" fill="#2E42A5"/>
<path fill-rule="evenodd" clip-rule="evenodd" d="M-3.65994 4.34762L-2.46762 3.60936L-1.54278 4.2012H-2.06641L-1.0074 5.03379L-1.36509 6.2012H-1.92531L-2.46929 5.129L-2.9332 6.2012H-4.31641L-3.2574 7.03379L-3.65994 8.34759L-2.46762 7.60933L-1.54274 8.2012H-2.06641L-1.0074 9.03379L-1.36509 10.2012H-1.92531L-2.46929 9.129L-2.9332 10.2012H-4.31641L-3.2574 11.0338L-3.65994 12.3476L-2.46762 11.6093L-1.31397 12.3476L-1.67265 11.0338L-0.746169 10.2012H-1.17351L-0.217623 9.60933L0.707262 10.2012H0.183594L1.2426 11.0338L0.840056 12.3476L2.03238 11.6093L3.18603 12.3476L2.82735 11.0338L3.75383 10.2012H3.32649L4.28238 9.60933L5.20726 10.2012H4.68359L5.7426 11.0338L5.34006 12.3476L6.53238 11.6093L7.68603 12.3476L7.32735 11.0338L8.25383 10.2012H7.82649L8.78238 9.60933L9.70726 10.2012H9.18359L10.2426 11.0338L9.84006 12.3476L11.0324 11.6093L12.186 12.3476L11.8274 11.0338L12.7538 10.2012H11.5747L11.0307 9.129L10.5668 10.2012H9.89606L9.57735 9.03379L10.5038 8.2012H10.0765L11.0324 7.60933L12.186 8.34759L11.8274 7.03379L12.7538 6.2012H11.5747L11.0307 5.129L10.5668 6.2012H9.89606L9.57735 5.03379L10.5038 4.2012H10.0765L11.0324 3.60936L12.186 4.34762L11.8273 3.03382L12.7538 2.20122H11.5747L11.0307 1.12903L10.5668 2.20122H9.18359L10.2426 3.03382L9.88492 4.2012H9.32469L8.78071 3.129L8.3168 4.2012H7.64605L7.32735 3.03382L8.25383 2.20122H7.07469L6.53071 1.12903L6.06679 2.20122H4.68359L5.7426 3.03382L5.38492 4.2012H4.82469L4.28071 3.129L3.8168 4.2012H3.14605L2.82735 3.03382L3.75383 2.20122H2.57469L2.03071 1.12903L1.56679 2.20122H0.183592L1.2426 3.03382L0.884917 4.2012H0.324688L-0.219289 3.129L-0.683204 4.2012H-1.35395L-1.67265 3.03382L-0.746169 2.20122H-1.92531L-2.46929 1.12903L-2.9332 2.20122H-4.31641L-3.2574 3.03382L-3.65994 4.34762ZM9.88491 8.2012L10.2426 7.03379L9.18359 6.2012H9.70726L8.78238 5.60933L7.82649 6.2012H8.25383L7.32735 7.03379L7.64606 8.2012H8.3168L8.78071 7.129L9.32469 8.2012H9.88491ZM7.45726 8.2012L6.53238 7.60933L5.57649 8.2012H6.00383L5.07735 9.03379L5.39606 10.2012H6.0668L6.53071 9.129L7.07469 10.2012H7.63491L7.9926 9.03379L6.93359 8.2012H7.45726ZM3.4926 9.03379L3.13491 10.2012H2.57469L2.03071 9.129L1.5668 10.2012H0.896062L0.577351 9.03379L1.50383 8.2012H1.07649L2.03238 7.60933L2.95726 8.2012H2.43359L3.4926 9.03379ZM3.8168 8.2012H3.14606L2.82735 7.03379L3.75383 6.2012H3.32649L4.28238 5.60933L5.20726 6.2012H4.68359L5.7426 7.03379L5.38491 8.2012H4.82469L4.28071 7.129L3.8168 8.2012ZM0.884912 8.2012L1.2426 7.03379L0.183594 6.2012H0.707261L-0.217623 5.60933L-1.17351 6.2012H-0.746169L-1.67265 7.03379L-1.35394 8.2012H-0.683204L-0.219289 7.129L0.324688 8.2012H0.884912ZM7.9926 5.03379L7.63491 6.2012H7.07469L6.53071 5.129L6.0668 6.2012H5.39606L5.07735 5.03379L6.00383 4.2012H5.57653L6.53238 3.60936L7.45722 4.2012H6.93359L7.9926 5.03379ZM2.95722 4.2012L2.03238 3.60936L1.07653 4.2012H1.50383L0.577351 5.03379L0.896062 6.2012H1.5668L2.03071 5.129L2.57469 6.2012H3.13491L3.4926 5.03379L2.43359 4.2012H2.95722Z" fill="#F7FCFF"/>
</g>
</g>
</g>
</g>
<defs>
<filter id="filter0_dd_265_151" x="-9" y="-2" width="42" height="30" filterUnits="userSpaceOnUse" color-interpolation-filters="sRGB">
<feFlood flood-opacity="0" result="BackgroundImageFix"/>
<feColorMatrix in="SourceAlpha" type="matrix" values="0 0 0 0 0 0 0 0 0 0 0 0 0 0 0 0 0 0 127 0" result="hardAlpha"/>
<feOffset dy="1"/>
<feGaussianBlur stdDeviation="1"/>
<feColorMatrix type="matrix" values="0 0 0 0 0.0627451 0 0 0 0 0.0941176 0 0 0 0 0.156863 0 0 0 0.06 0"/>
<feBlend mode="normal" in2="BackgroundImageFix" result="effect1_dropShadow_265_151"/>
<feColorMatrix in="SourceAlpha" type="matrix" values="0 0 0 0 0 0 0 0 0 0 0 0 0 0 0 0 0 0 127 0" result="hardAlpha"/>
<feOffset dy="1"/>
<feGaussianBlur stdDeviation="1.5"/>
<feColorMatrix type="matrix" values="0 0 0 0 0.0627451 0 0 0 0 0.0941176 0 0 0 0 0.156863 0 0 0 0.1 0"/>
<feBlend mode="normal" in2="effect1_dropShadow_265_151" result="effect2_dropShadow_265_151"/>
<feBlend mode="normal" in="SourceGraphic" in2="effect2_dropShadow_265_151" result="shape"/>
</filter>
<clipPath id="clip0_265_151">
<rect width="24" height="24" rx="12" fill="white"/>
</clipPath>
<clipPath id="clip1_265_151">
<rect x="-6" width="36" height="24" rx="1.5" fill="white"/>
</clipPath>
</defs>
</svg>
