<svg width="20" height="20" viewBox="0 0 20 20" fill="none" xmlns="http://www.w3.org/2000/svg">
<g clip-path="url(#clip0_1_583)">
<path d="M19.3613 9.68067C19.3613 4.33418 15.0272 0 9.68067 0C4.33418 0 0 4.33418 0 9.68067C0 14.5125 3.54006 18.5175 8.16807 19.2437V12.479H5.71008V9.68067H8.16807V7.5479C8.16807 5.12168 9.61336 3.78151 11.8246 3.78151C12.8834 3.78151 13.9916 3.97059 13.9916 3.97059V6.35294H12.7709C11.5684 6.35294 11.1933 7.09922 11.1933 7.86555V9.68067H13.8782L13.4489 12.479H11.1933V19.2437C15.8213 18.5175 19.3613 14.5125 19.3613 9.68067Z" fill="white"/>
</g>
<defs>
<clipPath id="clip0_1_583">
<rect width="19.3613" height="19.3613" fill="white"/>
</clipPath>
</defs>
</svg>
