<svg width="20" height="20" viewBox="0 0 20 20" fill="none" xmlns="http://www.w3.org/2000/svg">
<path d="M10.042 1.74328C12.6286 1.74328 12.9349 1.75462 13.9521 1.8C14.8975 1.8416 15.408 2.00042 15.7483 2.13277C16.1983 2.30672 16.5235 2.51849 16.8601 2.85504C17.2004 3.19538 17.4084 3.51681 17.5823 3.96681C17.7147 4.30714 17.8735 4.82143 17.9151 5.76303C17.9605 6.78403 17.9718 7.09034 17.9718 9.67311C17.9718 12.2597 17.9605 12.566 17.9151 13.5832C17.8735 14.5286 17.7147 15.0391 17.5823 15.3794C17.4084 15.8294 17.1966 16.1546 16.8601 16.4912C16.5197 16.8315 16.1983 17.0395 15.7483 17.2134C15.408 17.3458 14.8937 17.5046 13.9521 17.5462C12.9311 17.5916 12.6248 17.6029 10.042 17.6029C7.45545 17.6029 7.14914 17.5916 6.13192 17.5462C5.18654 17.5046 4.67603 17.3458 4.3357 17.2134C3.8857 17.0395 3.56049 16.8277 3.22393 16.4912C2.8836 16.1508 2.67561 15.8294 2.50166 15.3794C2.36931 15.0391 2.21049 14.5248 2.16889 13.5832C2.12351 12.5622 2.11217 12.2559 2.11217 9.67311C2.11217 7.08655 2.12351 6.78025 2.16889 5.76303C2.21049 4.81765 2.36931 4.30714 2.50166 3.96681C2.67561 3.51681 2.88738 3.1916 3.22393 2.85504C3.56427 2.51471 3.8857 2.30672 4.3357 2.13277C4.67603 2.00042 5.19032 1.8416 6.13192 1.8C7.14914 1.75462 7.45545 1.74328 10.042 1.74328ZM10.042 0C7.41385 0 7.08486 0.0113445 6.05251 0.0567227C5.02393 0.102101 4.31679 0.268487 3.70419 0.506723C3.06511 0.756302 2.52435 1.08529 1.98738 1.62605C1.44662 2.16303 1.11763 2.70378 0.868051 3.33908C0.629816 3.95546 0.463429 4.65882 0.418051 5.68739C0.372673 6.72353 0.361328 7.05252 0.361328 9.68067C0.361328 12.3088 0.372673 12.6378 0.418051 13.6702C0.463429 14.6987 0.629816 15.4059 0.868051 16.0185C1.11763 16.6576 1.44662 17.1983 1.98738 17.7353C2.52435 18.2723 3.06511 18.605 3.7004 18.8508C4.31679 19.0891 5.02015 19.2555 6.04872 19.3008C7.08108 19.3462 7.41007 19.3576 10.0382 19.3576C12.6664 19.3576 12.9954 19.3462 14.0277 19.3008C15.0563 19.2555 15.7634 19.0891 16.376 18.8508C17.0113 18.605 17.5521 18.2723 18.0891 17.7353C18.626 17.1983 18.9588 16.6576 19.2046 16.0223C19.4428 15.4059 19.6092 14.7025 19.6546 13.674C19.7 12.6416 19.7113 12.3126 19.7113 9.68445C19.7113 7.0563 19.7 6.72731 19.6546 5.69496C19.6092 4.66639 19.4428 3.95924 19.2046 3.34664C18.9664 2.70378 18.6374 2.16303 18.0966 1.62605C17.5597 1.08908 17.0189 0.756303 16.3836 0.510504C15.7672 0.272269 15.0639 0.105882 14.0353 0.0605042C12.9991 0.0113445 12.6702 0 10.042 0Z" fill="white"/>
<path d="M10.042 4.70801C7.29665 4.70801 5.06934 6.93532 5.06934 9.6807C5.06934 12.4261 7.29665 14.6534 10.042 14.6534C12.7874 14.6534 15.0147 12.4261 15.0147 9.6807C15.0147 6.93532 12.7874 4.70801 10.042 4.70801ZM10.042 12.9063C8.26093 12.9063 6.81639 11.4618 6.81639 9.6807C6.81639 7.8996 8.26093 6.45507 10.042 6.45507C11.8231 6.45507 13.2677 7.8996 13.2677 9.6807C13.2677 11.4618 11.8231 12.9063 10.042 12.9063Z" fill="white"/>
<path d="M16.3721 4.51127C16.3721 5.15413 15.8503 5.67219 15.2112 5.67219C14.5684 5.67219 14.0503 5.15034 14.0503 4.51127C14.0503 3.86841 14.5721 3.35034 15.2112 3.35034C15.8503 3.35034 16.3721 3.87219 16.3721 4.51127Z" fill="white"/>
</svg>
