<svg width="131" height="40" viewBox="0 0 131 40" fill="none" xmlns="http://www.w3.org/2000/svg">
<g clip-path="url(#clip0_5092_1232)">
<path d="M15.8863 10.099C15.8863 10.099 9.92235 15.8679 14.3605 17.7717C18.7987 19.6754 16.9994 17.6182 15.7375 16.3762C14.4709 15.1294 15.8863 10.099 15.8863 10.099Z" fill="#F8D982"/>
<path d="M43.4846 11.1827C38.2835 11.1827 34.0469 15.4123 34.0469 20.6153C34.0469 25.8183 38.2787 30.0479 43.4846 30.0479C48.6904 30.0479 52.9223 25.8183 52.9223 20.6153C52.9223 15.4123 48.6856 11.1827 43.4846 11.1827ZM43.4846 23.8282C41.7093 23.8282 40.2699 22.3896 40.2699 20.6153C40.2699 18.841 41.7093 17.4024 43.4846 17.4024C45.2599 17.4024 46.6993 18.841 46.6993 20.6153C46.6993 22.3896 45.2599 23.8282 43.4846 23.8282Z" fill="#2AA9DF"/>
<path d="M29.3831 11.1829L29.3927 11.1541L27.5838 11.2644C26.9121 11.3028 26.2404 11.4178 25.6166 11.6624C25.2136 11.8207 24.8058 12.0221 24.4219 12.2858C24.0381 12.5448 23.7262 12.8757 23.4047 13.1634C22.0373 14.3814 21.6055 16.5106 21.6055 16.5106C20.9626 19.5844 18.2325 21.8958 14.9602 21.8958C11.2034 21.8958 8.15664 18.8507 8.15664 15.0959C8.15664 11.3411 11.2034 8.29603 14.9602 8.29603C14.9746 8.29603 14.989 8.29603 15.0034 8.29603H16.1357H16.2653H18.4916C19.1105 8.28165 19.5855 8.14258 19.9262 8.01311C20.334 7.85965 20.7418 7.67743 21.1353 7.42807C21.5239 7.1787 21.8694 6.89098 22.1765 6.58407C22.6467 6.10933 23.0161 5.54826 23.3136 4.95363L24.1484 3.29442H24.1292C21.5959 1.3235 18.4196 0.139038 14.965 0.139038C6.69804 0.143833 0 6.83823 0 15.0959C0 23.3536 6.69804 30.048 14.9602 30.048C23.2224 30.048 29.9205 23.3536 29.9205 15.0959C29.9205 13.7388 29.7237 12.4345 29.3831 11.1829Z" fill="#2AA9DF"/>
<path d="M69.6961 0.143677V11.2786V12.8084V20.6105C69.6961 22.3848 68.2567 23.8234 66.4814 23.8234C64.7062 23.8234 63.2668 22.3848 63.2668 20.6105C63.2668 19.239 64.1304 18.0737 65.3395 17.6134V17.6086C65.3395 17.6086 66.5102 17.2441 67.2683 16.2994C67.2971 16.2611 67.3259 16.2275 67.3547 16.1891C67.3787 16.1604 67.3979 16.1268 67.4219 16.0932C68.9812 13.7626 67.8297 11.2738 67.8297 11.2738L67.8153 11.317V11.2834C67.3787 11.2211 66.9325 11.1779 66.4767 11.1779C61.2756 11.1779 57.0389 15.4075 57.0389 20.6105C57.0389 25.8135 61.2708 30.0431 66.4767 30.0431C71.6777 30.0431 75.9144 25.8135 75.9144 20.6105V12.8132V11.2834V0.143677H69.6961Z" fill="#2AA9DF"/>
<path d="M92.6978 30.0478V20.6104C92.6978 18.8361 91.2584 17.3975 89.4832 17.3975C87.7079 17.3975 86.2685 18.8361 86.2685 20.6104C86.2685 21.9819 87.1321 23.1472 88.3412 23.6076V23.6124C88.3412 23.6124 89.5119 23.9768 90.27 24.9215C90.2988 24.9599 90.3276 24.9934 90.3564 25.0318C90.3804 25.0606 90.3996 25.0941 90.4236 25.1277C91.9829 27.4583 90.8314 29.9471 90.8314 29.9471L90.817 29.9039V29.9375C90.3804 29.9999 89.9342 30.043 89.4784 30.043C84.2773 30.043 80.0406 25.8135 80.0406 20.6104C80.0406 15.4122 84.2725 11.1779 89.4784 11.1779C94.6794 11.1779 98.9161 15.4074 98.9161 20.6104V30.0478H92.6978Z" fill="#2AA9DF"/>
<path d="M117.441 11.1827L108.752 31.4146C104.333 40.1087 99.3862 40.1566 99.0599 40.147L99.2519 40.1518C99.8468 40.1662 101.411 40.2046 103.148 40.2046C105.187 40.2046 106.516 40.1518 107.408 40.0799C109.491 39.8881 111.036 38.8283 112.135 37.663C113.094 36.6464 113.718 35.5434 114.044 34.8529L114.342 34.1624L122.258 15.7288C119.001 14.9375 117.441 11.1827 117.441 11.1827Z" fill="#2AA9DF"/>
<path d="M117.441 11.1827C117.441 11.1827 119.005 14.9375 122.258 15.7336C122.642 15.8295 123.05 15.8822 123.482 15.8822C129.216 15.887 130.492 11.1827 130.492 11.1827H117.441Z" fill="#F8D982"/>
<path d="M112.322 19.4116C112.322 19.4116 110.59 11.8828 104.626 11.1779H101.694L109.28 26.4944L112.322 19.4116Z" fill="#2AA9DF"/>
</g>
<defs>
<clipPath id="clip0_5092_1232">
<rect width="130.492" height="40" fill="white"/>
</clipPath>
</defs>
</svg>
