<svg width="11" height="12" viewBox="0 0 11 12" fill="none" xmlns="http://www.w3.org/2000/svg">
<path fill-rule="evenodd" clip-rule="evenodd" d="M10.7777 2.40037C10.7777 2.9308 10.567 3.4395 10.192 3.81457C9.81688 4.18964 9.30818 4.40035 8.77775 4.40035C8.24732 4.40035 7.73862 4.18964 7.36355 3.81457C6.98848 3.4395 6.77777 2.9308 6.77777 2.40037C6.77777 1.86994 6.98848 1.36124 7.36355 0.986171C7.73862 0.611102 8.24732 0.400391 8.77775 0.400391C9.30818 0.400391 9.81688 0.611102 10.192 0.986171C10.567 1.36124 10.7777 1.86994 10.7777 2.40037ZM6.14578 0.957985C5.5955 0.791356 5.01384 0.755899 4.44739 0.854452C3.88095 0.953006 3.34545 1.18283 2.88378 1.52552C2.42211 1.86822 2.0471 2.31426 1.78879 2.82792C1.53047 3.34158 1.39603 3.90859 1.39622 4.48355V7.18193C1.39622 7.25494 1.38184 7.32724 1.3539 7.3947C1.32596 7.46215 1.28501 7.52344 1.23338 7.57507C1.18175 7.6267 1.12046 7.66766 1.053 7.6956C0.985542 7.72354 0.913243 7.73792 0.840229 7.73792C0.6811 7.73792 0.528489 7.80113 0.415969 7.91366C0.303448 8.02618 0.240234 8.17879 0.240234 8.33791C0.240234 8.49704 0.303448 8.64965 0.415969 8.76217C0.528489 8.8747 0.6811 8.93791 0.840229 8.93791H9.31935C9.47848 8.93791 9.63109 8.8747 9.74361 8.76217C9.85613 8.64965 9.91934 8.49704 9.91934 8.33791C9.91934 8.17879 9.85613 8.02618 9.74361 7.91366C9.63109 7.80113 9.47848 7.73792 9.31935 7.73792C9.17189 7.73792 9.03047 7.67934 8.9262 7.57507C8.82193 7.4708 8.76335 7.32939 8.76335 7.18193V5.40034C8.24344 5.39811 7.73304 5.2608 7.28219 5.00187C6.83134 4.74295 6.45551 4.37129 6.19158 3.92336C5.92764 3.47542 5.78464 2.96658 5.77662 2.44673C5.76859 1.92687 5.8958 1.41386 6.14578 0.957985ZM3.6802 10.6003C3.6802 10.4412 3.74342 10.2886 3.85594 10.176C3.96846 10.0635 4.12107 10.0003 4.2802 10.0003H5.88018C6.03931 10.0003 6.19192 10.0635 6.30444 10.176C6.41696 10.2886 6.48017 10.4412 6.48017 10.6003C6.48017 10.7594 6.41696 10.912 6.30444 11.0246C6.19192 11.1371 6.03931 11.2003 5.88018 11.2003H4.2802C4.12107 11.2003 3.96846 11.1371 3.85594 11.0246C3.74342 10.912 3.6802 10.7594 3.6802 10.6003Z" fill="white"/>
</svg>
